<svg width="32" height="32" viewBox="0 0 32 32" fill="none" xmlns="http://www.w3.org/2000/svg">
  <defs>
    <linearGradient id="smec-gradient" x1="0%" y1="0%" x2="100%" y2="100%">
      <stop offset="0%" style="stop-color:#8B5CF6"/>
      <stop offset="100%" style="stop-color:#EC4899"/>
    </linearGradient>
  </defs>
  <rect width="32" height="32" rx="8" fill="url(#smec-gradient)"/>
  <path d="M8 12C8 10.8954 8.89543 10 10 10H14C15.1046 10 16 10.8954 16 12V14C16 15.1046 15.1046 16 14 16H10C8.89543 16 8 15.1046 8 14V12Z" fill="white"/>
  <path d="M18 16C18 14.8954 18.8954 14 20 14H22C23.1046 14 24 14.8954 24 16V20C24 21.1046 23.1046 22 22 22H20C18.8954 22 18 21.1046 18 20V16Z" fill="white" fill-opacity="0.8"/>
  <circle cx="20" cy="10" r="2" fill="white" fill-opacity="0.6"/>
  <circle cx="12" cy="22" r="2" fill="white" fill-opacity="0.6"/>
</svg>
